<?xml version="1.0" standalone="no"?>
<!DOCTYPE svg PUBLIC "-//W3C//DTD SVG 20010904//EN"
 "http://www.w3.org/TR/2001/REC-SVG-20010904/DTD/svg10.dtd">
<svg version="1.0" xmlns="http://www.w3.org/2000/svg"
 width="512.000000pt" height="512.000000pt" viewBox="0 0 512.000000 512.000000"
 preserveAspectRatio="xMidYMid meet">

<g transform="translate(0.000000,512.000000) scale(0.100000,-0.100000)"
fill="#000000" stroke="none">
<path d="M685 4146 c-164 -40 -297 -165 -345 -325 -20 -65 -20 -89 -18 -1281
l3 -1215 23 -58 c51 -126 160 -231 289 -280 l58 -22 1830 -3 c1196 -1 1848 1
1885 8 183 33 345 194 380 379 6 35 10 469 10 1220 0 1283 3 1222 -61 1342
-38 70 -126 157 -197 193 -117 59 -1 56 -1987 55 -1399 -1 -1832 -4 -1870 -13z
m3329 -374 c-39 -37 -360 -344 -713 -682 -354 -338 -655 -621 -669 -629 -35
-19 -109 -19 -143 0 -15 8 -318 293 -675 634 -356 341 -677 648 -713 682 l-66
62 1525 0 1525 0 -71 -67z m-2779 -566 c286 -274 520 -501 520 -506 0 -5 -250
-273 -555 -594 l-555 -585 -3 1087 c-1 598 0 1102 3 1121 l6 34 32 -31 c18
-16 266 -253 552 -526z m3240 512 c3 -18 4 -539 3 -1157 l-3 -1124 -578 608
c-317 335 -576 613 -575 617 4 12 1131 1088 1140 1088 4 0 10 -15 13 -32z
m-2155 -1530 c155 -89 363 -83 502 15 26 17 95 77 155 133 l108 101 547 -576
547 -576 -830 -3 c-456 -1 -1202 -1 -1658 0 l-829 3 566 596 566 597 141 -132
c77 -73 160 -144 185 -158z"/>
</g>
</svg>
