<?xml version="1.0" standalone="no"?>
<!DOCTYPE svg PUBLIC "-//W3C//DTD SVG 20010904//EN"
 "http://www.w3.org/TR/2001/REC-SVG-20010904/DTD/svg10.dtd">
<svg version="1.0" xmlns="http://www.w3.org/2000/svg"
 width="512.000000pt" height="512.000000pt" viewBox="0 0 512.000000 512.000000"
 preserveAspectRatio="xMidYMid meet">

<g transform="translate(0.000000,512.000000) scale(0.100000,-0.100000)"
fill="#000000" stroke="none">
<path d="M2430 5114 c-120 -21 -155 -29 -225 -51 -333 -104 -615 -373 -735
-701 -63 -173 -70 -239 -70 -664 l0 -384 -77 -64 c-274 -231 -505 -627 -583
-1001 -177 -850 245 -1701 1025 -2070 519 -245 1115 -237 1630 21 356 179 637
456 819 810 274 532 275 1152 5 1692 -97 193 -268 415 -423 548 l-75 65 -1
383 c0 348 -2 393 -21 485 -90 446 -417 788 -859 902 -83 21 -134 27 -245 30
-77 2 -151 2 -165 -1z m304 -484 c269 -69 470 -291 515 -571 6 -35 11 -156 11
-268 0 -173 -2 -202 -14 -198 -84 33 -221 72 -325 94 -116 25 -145 27 -356 28
-202 0 -244 -3 -345 -23 -92 -19 -269 -69 -349 -100 -21 -8 -10 461 13 543 68
242 261 433 500 495 98 26 249 26 350 0z m91 -1399 c282 -54 513 -178 720
-386 269 -269 408 -602 408 -980 0 -167 -20 -296 -70 -445 -154 -466 -545
-815 -1038 -926 -109 -24 -379 -30 -503 -10 -589 93 -1054 552 -1157 1141 -23
130 -23 347 -1 475 108 608 599 1072 1218 1150 104 13 306 4 423 -19z"/>
<path d="M2440 2546 c-205 -57 -340 -234 -342 -446 -1 -150 62 -282 179 -371
l53 -41 0 -290 c0 -311 2 -323 55 -386 64 -77 192 -101 282 -54 50 26 100 84
113 132 6 19 10 162 10 316 l0 282 53 41 c78 59 141 154 166 249 7 23 12 77
12 120 0 214 -138 393 -346 448 -61 17 -175 16 -235 0z"/>
</g>
</svg>
